# xmcd
#
# Track frame offsets:
# 150
# 11440
# 24566
# 40954
# 54920
# 70388
# 85444
# 106160
# 126326
# 144486
# 165523
# 183398
# 203632
# 217163
#
# Disc length: 3160 seconds
#
# Revision: 1
# Processed by: cddbd v1.5.2PL0 Copyright (c) Steve Scherf et al.
# Submitted via: CedeCatalogueitor 2.6.0.6 http://personales.ya.com/cdcatalogueitor
#
DISCID=c30c560e
DTITLE=Darren Hayman and The Secondary Modern - Pram Town
DYEAR=1900
DGENRE=
TTITLE0=Civic Pride
TTITLE1=Pram Town
TTITLE2=Compilation Cassette
TTITLE3=Losing My Glue
TTITLE4=No Middle Name
TTITLE5=Room To Grow
TTITLE6=Our Favourite Motorway
TTITLE7=Out Of My League
TTITLE8=Amy And Rachel
TTITLE9=Fire Stairs
TTITLE10=Leaves On The Line
TTITLE11=High Rise Towers In Medium Size Towns
TTITLE12=Never Want To Be That Way Again
TTITLE13=Big Fish
EXTD=
EXTT0=
EXTT1=
EXTT2=
EXTT3=
EXTT4=
EXTT5=
EXTT6=
EXTT7=
EXTT8=
EXTT9=
EXTT10=
EXTT11=
EXTT12=
EXTT13=
PLAYORDER=
